<svg xmlns="http://www.w3.org/2000/svg" width="960" height="720" viewBox="0 0 960 720" role="img" aria-labelledby="title desc">
<title id="title">TraceWork 工作记录与分析功能示意</title><desc id="desc">工作记录、项目归档与阶段总结，配合工作时长趋势和项目投入分布。图表数据为演示数据。</desc>
<defs><linearGradient id="area" x1="0" y1="0" x2="0" y2="1"><stop stop-color="#9686ff" stop-opacity=".35"/><stop offset="1" stop-color="#9686ff" stop-opacity="0"/></linearGradient></defs>
<rect width="960" height="720" rx="24" fill="#171923"/>
<g font-family="Arial,Microsoft YaHei,sans-serif">
<text x="40" y="57" fill="#f3f1ff" font-size="29" font-weight="700">TraceWork</text><text x="40" y="88" fill="#989bb0" font-size="16">让工作有迹可循，让复盘有据可依</text>
<rect x="756" y="34" width="164" height="32" rx="16" fill="#353043"/><text x="838" y="55" text-anchor="middle" fill="#c6baff" font-size="13">功能示意 · 演示数据</text>
<rect x="40" y="120" width="280" height="100" rx="14" fill="#242633"/><text x="60" y="150" fill="#a89aff" font-size="14">01</text><text x="60" y="179" fill="#f1effa" font-size="22" font-weight="700">工作记录</text><text x="60" y="202" fill="#a5a7bb" font-size="14">活动追踪 / 随手笔记</text><rect x="340" y="120" width="280" height="100" rx="14" fill="#242633"/><text x="360" y="150" fill="#a89aff" font-size="14">02</text><text x="360" y="179" fill="#f1effa" font-size="22" font-weight="700">项目归档</text><text x="360" y="202" fill="#a5a7bb" font-size="14">关联项目 / 回溯过程</text><rect x="640" y="120" width="280" height="100" rx="14" fill="#242633"/><text x="660" y="150" fill="#a89aff" font-size="14">03</text><text x="660" y="179" fill="#f1effa" font-size="22" font-weight="700">阶段总结</text><text x="660" y="202" fill="#a5a7bb" font-size="14">整理成果 / 支持复盘</text><rect x="40" y="240" width="550" height="284" rx="16" fill="#222430"/><text x="64" y="276" fill="#eeeefa" font-size="20" font-weight="700">工作时长趋势</text><text x="64" y="301" fill="#9195ad" font-size="13">回顾每日投入，发现工作节奏</text>
<g stroke="#373a4a" stroke-width="1"><path d="M92 334H562 M92 384H562 M92 434H562"/></g>
<g fill="#9195ad" font-size="12"><text x="61" y="338">8h</text><text x="61" y="388">4h</text><text x="61" y="438">0h</text></g>
<path d="M100 401L173 375L247 386L321 342L395 358L469 323L548 350V454H100Z" fill="url(#area)"/><path d="M100 401L173 375L247 386L321 342L395 358L469 323L548 350" fill="none" stroke="#a799ff" stroke-width="4" stroke-linecap="round" stroke-linejoin="round"/>
<text x="100" y="483" text-anchor="middle" fill="#9195ad" font-size="13">周一</text><text x="174" y="483" text-anchor="middle" fill="#9195ad" font-size="13">周二</text><text x="248" y="483" text-anchor="middle" fill="#9195ad" font-size="13">周三</text><text x="322" y="483" text-anchor="middle" fill="#9195ad" font-size="13">周四</text><text x="396" y="483" text-anchor="middle" fill="#9195ad" font-size="13">周五</text><text x="470" y="483" text-anchor="middle" fill="#9195ad" font-size="13">周六</text><text x="544" y="483" text-anchor="middle" fill="#9195ad" font-size="13">周日</text><rect x="610" y="240" width="310" height="284" rx="16" fill="#222430"/><text x="634" y="276" fill="#eeeefa" font-size="20" font-weight="700">项目投入分布</text><text x="634" y="301" fill="#9195ad" font-size="13">比较项目占比，辅助安排精力</text>
<g transform="translate(701 389) rotate(-90)" fill="none" stroke-width="21"><circle r="56" stroke="#393c4d"/><circle r="56" stroke="#a799ff" stroke-dasharray="176 352"/><circle r="56" stroke="#72d8c4" stroke-dasharray="99 352" stroke-dashoffset="-182"/><circle r="56" stroke="#e9bb7c" stroke-dasharray="61 352" stroke-dashoffset="-287"/></g>
<text x="701" y="387" text-anchor="middle" fill="#f3efff" font-size="23" font-weight="700">3</text><text x="701" y="407" text-anchor="middle" fill="#9195ad" font-size="12">项目</text>
<circle cx="788" cy="357" r="4" fill="#a799ff"/><text x="800" y="362" fill="#c3c5d5" font-size="13">项目 A · 50%</text><circle cx="788" cy="390" r="4" fill="#72d8c4"/><text x="800" y="395" fill="#c3c5d5" font-size="13">项目 B · 30%</text><circle cx="788" cy="423" r="4" fill="#e9bb7c"/><text x="800" y="428" fill="#c3c5d5" font-size="13">项目 C · 20%</text><text x="634" y="490" fill="#9195ad" font-size="13">从零散记录，到可读的工作全貌</text>
<rect x="40" y="544" width="880" height="130" rx="16" fill="#242633"/><text x="64" y="582" fill="#eeeefa" font-size="20" font-weight="700">记录 → 归档 → 分析 → 总结</text><text x="64" y="612" fill="#b6b8cb" font-size="16">把日常活动与工作笔记串联成项目脉络</text><text x="64" y="639" fill="#9195ad" font-size="14">图表为分析展示示意</text>
</g></svg>